<!-- Generator: Adobe Illustrator 18.1.1, SVG Export Plug-In  -->
<svg version="1.1"
	 xmlns="http://www.w3.org/2000/svg" xmlns:xlink="http://www.w3.org/1999/xlink" xmlns:a="http://ns.adobe.com/AdobeSVGViewerExtensions/3.0/"
	 x="0px" y="0px" width="64.937px" height="64.938px" viewBox="0 0 64.937 64.938" enable-background="new 0 0 64.937 64.938"
	 xml:space="preserve">
<defs>
</defs>
<g>
	<g>
		<path d="M63.154,54.546L48.256,39.647c-2.22,3.452-5.157,6.388-8.61,8.608l14.899,14.899c2.378,2.378,6.235,2.378,8.608,0
			C65.532,60.78,65.532,56.924,63.154,54.546z"/>
		<path d="M48.703,24.352C48.703,10.904,37.8,0,24.352,0C10.904,0,0,10.904,0,24.352s10.904,24.351,24.352,24.351
			C37.8,48.703,48.703,37.8,48.703,24.352z M24.352,42.615c-10.071,0-18.264-8.192-18.264-18.263S14.28,6.088,24.352,6.088
			c10.071,0,18.264,8.192,18.264,18.264S34.423,42.615,24.352,42.615z"/>
		<path d="M10.147,24.352h4.058c0-5.595,4.552-10.146,10.147-10.146v-4.059C16.52,10.147,10.147,16.52,10.147,24.352z"/>
	</g>
</g>
</svg>