<!-- Generator: Adobe Illustrator 18.1.1, SVG Export Plug-In  -->
<svg version="1.1"
	 xmlns="http://www.w3.org/2000/svg" xmlns:xlink="http://www.w3.org/1999/xlink" xmlns:a="http://ns.adobe.com/AdobeSVGViewerExtensions/3.0/"
	 x="0px" y="0px" width="66.866px" height="69.085px" viewBox="0 0 66.866 69.085" enable-background="new 0 0 66.866 69.085"
	 xml:space="preserve">
<defs>
</defs>
<g>
	<g>
		<path fill="#050406" d="M15.441,16.736h3.14c1.155,0,2.093-0.744,2.093-1.656V1.656C20.674,0.74,19.735,0,18.581,0h-3.14
			c-1.15,0-2.089,0.74-2.089,1.656V15.08C13.348,15.991,14.286,16.736,15.441,16.736z"/>
		<path fill="#050406" d="M48.285,16.736h3.14c1.155,0,2.093-0.744,2.093-1.656V1.656C53.518,0.74,52.58,0,51.425,0h-3.14
			c-1.155,0-2.089,0.74-2.089,1.656V15.08C46.197,15.991,47.13,16.736,48.285,16.736z"/>
		<path fill="#050406" d="M64.353,6.406h-8.327v10.276c0,2.296-2.066,4.164-4.606,4.164h-3.14c-2.54,0-4.606-1.868-4.606-4.164
			V6.406H23.177v10.276c0,2.296-2.066,4.164-4.606,4.164h-3.131c-2.535,0-4.601-1.868-4.601-4.164V6.406H2.513
			C1.128,6.406,0,7.533,0,8.918v57.664c0,1.385,1.128,2.504,2.513,2.504h61.841c1.389,0,2.513-1.119,2.513-2.504V8.918
			C66.866,7.533,65.743,6.406,64.353,6.406z M63.469,42.809v19.618c0,0.433-0.352,0.794-0.789,0.794H32.528H4.186
			c-0.438,0-0.789-0.361-0.789-0.794V46.508V26.89c0-0.433,0.352-0.794,0.789-0.794h30.147H62.68l0,0
			c0.438,0,0.789,0.361,0.789,0.794L63.469,42.809L63.469,42.809z"/>
		<rect x="9.387" y="40.283" fill="#050406" width="7.827" height="7.831"/>
		<rect x="22.708" y="40.283" fill="#050406" width="7.827" height="7.831"/>
		<rect x="35.898" y="40.283" fill="#050406" width="7.822" height="7.831"/>
		<rect x="49.215" y="40.283" fill="#050406" width="7.831" height="7.831"/>
		<rect x="9.55" y="51.569" fill="#050406" width="7.831" height="7.831"/>
		<rect x="22.875" y="51.569" fill="#050406" width="7.827" height="7.831"/>
		<rect x="36.065" y="51.569" fill="#050406" width="7.822" height="7.831"/>
		<rect x="49.386" y="51.569" fill="#050406" width="7.827" height="7.831"/>
		<rect x="35.948" y="29.186" fill="#050406" width="7.827" height="7.827"/>
		<rect x="49.278" y="29.186" fill="#050406" width="7.822" height="7.827"/>
	</g>
</g>
</svg>