<!-- Generator: Adobe Illustrator 18.1.1, SVG Export Plug-In  -->
<svg version="1.1"
	 xmlns="http://www.w3.org/2000/svg" xmlns:xlink="http://www.w3.org/1999/xlink" xmlns:a="http://ns.adobe.com/AdobeSVGViewerExtensions/3.0/"
	 x="0px" y="0px" width="73.105px" height="72.362px" viewBox="0 0 73.105 72.362" enable-background="new 0 0 73.105 72.362"
	 xml:space="preserve">
<defs>
</defs>
<g>
	<path fill="#010101" d="M4.799,26.413c0.384,1.318,0.918,2.588,1.592,3.78L4.47,32.617c-0.627,0.792-0.557,1.921,0.149,2.635
		l3.309,3.309c0.714,0.714,1.843,0.776,2.635,0.149l2.408-1.906c1.239,0.714,2.557,1.27,3.929,1.663l0.361,3.098
		c0.118,1.004,0.965,1.757,1.968,1.757h4.682c1.004,0,1.851-0.753,1.968-1.757l0.345-2.988c1.474-0.384,2.886-0.957,4.211-1.702
		l2.329,1.843c0.792,0.627,1.921,0.557,2.635-0.149l3.309-3.309c0.714-0.714,0.776-1.843,0.149-2.635l-1.812-2.298
		c0.753-1.302,1.341-2.69,1.733-4.141l2.792-0.322c1.004-0.118,1.757-0.965,1.757-1.968v-4.682c0-1.004-0.753-1.851-1.757-1.968
		l-2.753-0.322c-0.377-1.435-0.941-2.808-1.663-4.094l1.694-2.141c0.627-0.792,0.557-1.921-0.149-2.635L35.4,4.752
		c-0.714-0.714-1.843-0.776-2.635-0.149L30.687,6.25c-1.349-0.792-2.792-1.396-4.305-1.804l-0.314-2.69C25.95,0.753,25.103,0,24.1,0
		h-4.682c-1.004,0-1.851,0.753-1.968,1.757l-0.314,2.69c-1.553,0.416-3.035,1.043-4.415,1.866l-2.157-1.71
		C9.772,3.976,8.642,4.047,7.929,4.752L4.619,8.062C3.906,8.776,3.843,9.905,4.47,10.697l1.804,2.282
		c-0.721,1.302-1.27,2.69-1.631,4.133l-2.886,0.329C0.753,17.559,0,18.406,0,19.41v4.682c0,1.004,0.753,1.851,1.757,1.968
		L4.799,26.413z M21.763,13.748c4.266,0,7.74,3.474,7.74,7.74s-3.474,7.74-7.74,7.74c-4.266,0-7.74-3.474-7.74-7.74
		S17.496,13.748,21.763,13.748z"/>
	<path fill="#010101" d="M68.048,27.566l-2.47-2.086c-0.761-0.643-1.882-0.612-2.604,0.071l-1.365,1.278
		c-1.153-0.557-2.376-0.949-3.639-1.176l-0.384-1.882c-0.196-0.972-1.098-1.647-2.086-1.568l-3.223,0.274
		c-0.988,0.086-1.765,0.894-1.796,1.89l-0.063,1.914c-1.239,0.447-2.408,1.059-3.474,1.827l-1.631-1.082
		c-0.831-0.549-1.937-0.392-2.58,0.369l-2.086,2.486c-0.643,0.761-0.612,1.882,0.07,2.604l1.427,1.521
		c-0.494,1.114-0.847,2.282-1.051,3.482l-2.039,0.416c-0.972,0.196-1.647,1.098-1.568,2.086l0.274,3.223
		c0.086,0.988,0.894,1.765,1.89,1.796l2.204,0.07c0.4,1.051,0.925,2.047,1.561,2.98l-1.231,1.859
		c-0.549,0.831-0.392,1.937,0.369,2.58l2.47,2.086c0.761,0.643,1.882,0.612,2.604-0.071l1.616-1.514
		c1.059,0.494,2.172,0.863,3.317,1.082l0.447,2.212c0.196,0.972,1.098,1.647,2.086,1.568l3.223-0.274
		c0.988-0.086,1.765-0.894,1.796-1.89l0.071-2.165c1.176-0.416,2.29-0.98,3.317-1.678l1.78,1.176
		c0.831,0.549,1.937,0.392,2.58-0.369l2.086-2.47c0.643-0.761,0.612-1.882-0.071-2.604l-1.435-1.521
		c0.526-1.114,0.91-2.29,1.129-3.498l1.961-0.4c0.972-0.196,1.647-1.098,1.568-2.086l-0.274-3.223
		c-0.086-0.988-0.894-1.765-1.89-1.796L68.966,35c-0.408-1.145-0.957-2.227-1.639-3.231l1.074-1.616
		C68.966,29.323,68.809,28.209,68.048,27.566z M55.9,46.199c-3.482,0.298-6.556-2.298-6.846-5.78
		c-0.298-3.482,2.298-6.556,5.78-6.846c3.482-0.298,6.556,2.298,6.846,5.78C61.978,42.835,59.382,45.909,55.9,46.199z"/>
	<path fill="#010101" d="M16.077,54.873c-0.988,0.102-1.749,0.933-1.757,1.929l-0.024,1.984c-0.016,0.996,0.721,1.843,1.71,1.969
		l1.459,0.188c0.243,0.886,0.588,1.733,1.035,2.533l-0.941,1.161c-0.627,0.776-0.58,1.89,0.118,2.604l1.388,1.419
		c0.698,0.714,1.812,0.792,2.604,0.18l1.168-0.902c0.823,0.486,1.694,0.871,2.604,1.137l0.157,1.506
		c0.102,0.988,0.933,1.749,1.929,1.757l1.984,0.024c0.996,0.016,1.843-0.722,1.968-1.71l0.18-1.427
		c0.988-0.243,1.929-0.612,2.823-1.098l1.098,0.886c0.776,0.627,1.89,0.58,2.604-0.118l1.419-1.388
		c0.714-0.698,0.792-1.812,0.18-2.604l-0.839-1.09c0.518-0.863,0.918-1.78,1.192-2.745l1.302-0.133
		c0.988-0.102,1.749-0.933,1.757-1.929l0.023-1.984c0.016-0.996-0.721-1.843-1.71-1.968l-1.271-0.165
		c-0.243-0.957-0.604-1.882-1.074-2.745l0.792-0.972c0.627-0.776,0.58-1.89-0.118-2.604l-1.388-1.419
		c-0.698-0.714-1.812-0.792-2.604-0.18l-0.949,0.729c-0.894-0.541-1.851-0.957-2.855-1.239l-0.126-1.231
		c-0.102-0.988-0.933-1.749-1.929-1.757l-1.984-0.024c-0.996-0.016-1.843,0.721-1.969,1.71L25.88,46.38
		c-1.035,0.267-2.031,0.674-2.956,1.208l-0.98-0.8c-0.776-0.627-1.89-0.58-2.604,0.118l-1.427,1.396
		c-0.714,0.698-0.792,1.812-0.18,2.604l0.839,1.082c-0.486,0.863-0.871,1.78-1.121,2.745L16.077,54.873z M28.883,52.63
		c2.847,0.031,5.129,2.376,5.098,5.223c-0.031,2.847-2.376,5.129-5.223,5.098c-2.847-0.031-5.129-2.376-5.098-5.223
		C23.692,54.881,26.037,52.599,28.883,52.63z"/>
</g>
</svg>